<mxfile host="app.diagrams.net" agent="Mozilla/5.0 (Macintosh; Intel Mac OS X 10_15_7) AppleWebKit/605.1.15 (KHTML, like Gecko) Version/17.0 Safari/605.1.15" version="24.7.16">
  <diagram name="P치gina-1" id="abuLJBTFDbg1C9s6nDSt">
    <mxGraphModel dx="954" dy="647" grid="1" gridSize="10" guides="1" tooltips="1" connect="1" arrows="1" fold="1" page="1" pageScale="1" pageWidth="827" pageHeight="1169" math="0" shadow="0">
      <root>
        <mxCell id="0" />
        <mxCell id="1" parent="0" />
        <mxCell id="pNPqIXBsP1YfmATv3oyi-7" value="" style="edgeStyle=orthogonalEdgeStyle;rounded=0;orthogonalLoop=1;jettySize=auto;html=1;" edge="1" parent="1" source="pNPqIXBsP1YfmATv3oyi-4" target="pNPqIXBsP1YfmATv3oyi-6">
          <mxGeometry relative="1" as="geometry" />
        </mxCell>
        <mxCell id="pNPqIXBsP1YfmATv3oyi-4" value="Inicio del programa" style="ellipse;whiteSpace=wrap;html=1;" vertex="1" parent="1">
          <mxGeometry x="313.75" y="30" width="120" height="30" as="geometry" />
        </mxCell>
        <mxCell id="pNPqIXBsP1YfmATv3oyi-17" value="" style="edgeStyle=orthogonalEdgeStyle;rounded=0;orthogonalLoop=1;jettySize=auto;html=1;" edge="1" parent="1" source="pNPqIXBsP1YfmATv3oyi-6" target="pNPqIXBsP1YfmATv3oyi-16">
          <mxGeometry relative="1" as="geometry" />
        </mxCell>
        <mxCell id="pNPqIXBsP1YfmATv3oyi-6" value="Solicitar al usuario el numero de personas" style="rounded=1;whiteSpace=wrap;html=1;" vertex="1" parent="1">
          <mxGeometry x="250" y="100" width="247.5" height="30" as="geometry" />
        </mxCell>
        <mxCell id="pNPqIXBsP1YfmATv3oyi-42" value="" style="edgeStyle=orthogonalEdgeStyle;rounded=0;orthogonalLoop=1;jettySize=auto;html=1;" edge="1" parent="1" source="pNPqIXBsP1YfmATv3oyi-16" target="pNPqIXBsP1YfmATv3oyi-41">
          <mxGeometry relative="1" as="geometry" />
        </mxCell>
        <mxCell id="pNPqIXBsP1YfmATv3oyi-16" value="Se registra la entrada en una variable del tipo int n." style="shape=document;whiteSpace=wrap;html=1;boundedLbl=1;rounded=1;" vertex="1" parent="1">
          <mxGeometry x="248.75" y="150" width="250" height="60" as="geometry" />
        </mxCell>
        <mxCell id="pNPqIXBsP1YfmATv3oyi-47" value="" style="edgeStyle=orthogonalEdgeStyle;rounded=0;orthogonalLoop=1;jettySize=auto;html=1;" edge="1" parent="1" source="pNPqIXBsP1YfmATv3oyi-41" target="pNPqIXBsP1YfmATv3oyi-46">
          <mxGeometry relative="1" as="geometry" />
        </mxCell>
        <mxCell id="pNPqIXBsP1YfmATv3oyi-50" value="" style="edgeStyle=orthogonalEdgeStyle;rounded=0;orthogonalLoop=1;jettySize=auto;html=1;" edge="1" parent="1" source="pNPqIXBsP1YfmATv3oyi-41" target="pNPqIXBsP1YfmATv3oyi-49">
          <mxGeometry relative="1" as="geometry" />
        </mxCell>
        <mxCell id="pNPqIXBsP1YfmATv3oyi-41" value="Si n &amp;lt; 0&amp;nbsp;" style="rhombus;whiteSpace=wrap;html=1;rounded=1;" vertex="1" parent="1">
          <mxGeometry x="243.75" y="240" width="260" height="110" as="geometry" />
        </mxCell>
        <mxCell id="pNPqIXBsP1YfmATv3oyi-46" value="Imprimir -1 en pantalla&amp;nbsp;" style="whiteSpace=wrap;html=1;rounded=1;" vertex="1" parent="1">
          <mxGeometry x="30" y="380" width="210" height="40" as="geometry" />
        </mxCell>
        <mxCell id="pNPqIXBsP1YfmATv3oyi-48" value="VERDADERO" style="text;html=1;align=center;verticalAlign=middle;resizable=0;points=[];autosize=1;strokeColor=none;fillColor=none;" vertex="1" parent="1">
          <mxGeometry x="143.75" y="260" width="100" height="30" as="geometry" />
        </mxCell>
        <mxCell id="pNPqIXBsP1YfmATv3oyi-53" value="" style="edgeStyle=orthogonalEdgeStyle;rounded=0;orthogonalLoop=1;jettySize=auto;html=1;" edge="1" parent="1" source="pNPqIXBsP1YfmATv3oyi-49" target="pNPqIXBsP1YfmATv3oyi-52">
          <mxGeometry relative="1" as="geometry" />
        </mxCell>
        <mxCell id="pNPqIXBsP1YfmATv3oyi-49" value="Comenzamos el c치lculo del promedio.&amp;nbsp;" style="whiteSpace=wrap;html=1;rounded=1;" vertex="1" parent="1">
          <mxGeometry x="510" y="380" width="250" height="40" as="geometry" />
        </mxCell>
        <mxCell id="pNPqIXBsP1YfmATv3oyi-51" value="FALSO" style="text;html=1;align=center;verticalAlign=middle;resizable=0;points=[];autosize=1;strokeColor=none;fillColor=none;" vertex="1" parent="1">
          <mxGeometry x="580" y="260" width="60" height="30" as="geometry" />
        </mxCell>
        <mxCell id="pNPqIXBsP1YfmATv3oyi-56" value="" style="edgeStyle=orthogonalEdgeStyle;rounded=0;orthogonalLoop=1;jettySize=auto;html=1;" edge="1" parent="1" source="pNPqIXBsP1YfmATv3oyi-52" target="pNPqIXBsP1YfmATv3oyi-55">
          <mxGeometry relative="1" as="geometry" />
        </mxCell>
        <mxCell id="pNPqIXBsP1YfmATv3oyi-58" value="" style="edgeStyle=orthogonalEdgeStyle;rounded=0;orthogonalLoop=1;jettySize=auto;html=1;" edge="1" parent="1" source="pNPqIXBsP1YfmATv3oyi-52" target="pNPqIXBsP1YfmATv3oyi-57">
          <mxGeometry relative="1" as="geometry" />
        </mxCell>
        <mxCell id="pNPqIXBsP1YfmATv3oyi-52" value="Para un grupo = n&amp;nbsp;&lt;div&gt;A.Donde grupo &amp;gt; 0&lt;/div&gt;&lt;div&gt;B.grupo--&lt;/div&gt;&lt;div&gt;(I.E. Por cada iteraci칩n&lt;/div&gt;&lt;div&gt;vamos a retroceder&lt;/div&gt;&lt;div&gt;un elemento)&lt;/div&gt;" style="rhombus;whiteSpace=wrap;html=1;rounded=1;" vertex="1" parent="1">
          <mxGeometry x="530" y="490" width="210" height="190" as="geometry" />
        </mxCell>
        <mxCell id="pNPqIXBsP1YfmATv3oyi-62" value="" style="edgeStyle=orthogonalEdgeStyle;rounded=0;orthogonalLoop=1;jettySize=auto;html=1;" edge="1" parent="1" source="pNPqIXBsP1YfmATv3oyi-55" target="pNPqIXBsP1YfmATv3oyi-61">
          <mxGeometry relative="1" as="geometry" />
        </mxCell>
        <mxCell id="pNPqIXBsP1YfmATv3oyi-55" value="Solicitar calificaci칩n" style="whiteSpace=wrap;html=1;rounded=1;" vertex="1" parent="1">
          <mxGeometry x="870" y="555" width="120" height="60" as="geometry" />
        </mxCell>
        <mxCell id="pNPqIXBsP1YfmATv3oyi-60" value="" style="edgeStyle=orthogonalEdgeStyle;rounded=0;orthogonalLoop=1;jettySize=auto;html=1;" edge="1" parent="1" source="pNPqIXBsP1YfmATv3oyi-57" target="pNPqIXBsP1YfmATv3oyi-59">
          <mxGeometry relative="1" as="geometry" />
        </mxCell>
        <mxCell id="pNPqIXBsP1YfmATv3oyi-57" value="Realizar la suma de Promedio&lt;div&gt;&lt;br&gt;&lt;/div&gt;&lt;div&gt;Promedio = suma de calificaciones / grupo&lt;/div&gt;" style="whiteSpace=wrap;html=1;rounded=1;" vertex="1" parent="1">
          <mxGeometry x="230" y="555" width="260" height="60" as="geometry" />
        </mxCell>
        <mxCell id="pNPqIXBsP1YfmATv3oyi-59" value="Imprimir en pantalla Promedio&amp;nbsp;" style="whiteSpace=wrap;html=1;rounded=1;" vertex="1" parent="1">
          <mxGeometry x="300" y="700" width="120" height="60" as="geometry" />
        </mxCell>
        <mxCell id="pNPqIXBsP1YfmATv3oyi-61" value="Guardar en una variable llamada Suma de Calificaciones, el resultado&amp;nbsp;" style="shape=document;whiteSpace=wrap;html=1;boundedLbl=1;rounded=1;" vertex="1" parent="1">
          <mxGeometry x="750" y="700" width="360" height="80" as="geometry" />
        </mxCell>
        <mxCell id="pNPqIXBsP1YfmATv3oyi-63" value="VERDADERO" style="text;html=1;align=center;verticalAlign=middle;resizable=0;points=[];autosize=1;strokeColor=none;fillColor=none;" vertex="1" parent="1">
          <mxGeometry x="870" y="500" width="100" height="30" as="geometry" />
        </mxCell>
        <mxCell id="pNPqIXBsP1YfmATv3oyi-64" value="FALSO" style="text;html=1;align=center;verticalAlign=middle;resizable=0;points=[];autosize=1;strokeColor=none;fillColor=none;" vertex="1" parent="1">
          <mxGeometry x="330" y="500" width="60" height="30" as="geometry" />
        </mxCell>
      </root>
    </mxGraphModel>
  </diagram>
</mxfile>
